<svg id="visual" viewBox="0 0 2555 1440" width="2555" height="1440" xmlns="http://www.w3.org/2000/svg" xmlns:xlink="http://www.w3.org/1999/xlink" version="1.1"><rect x="0" y="0" width="2555" height="1440" fill="#ececec"></rect><defs><linearGradient id="grad1_0" x1="43.6%" y1="100%" x2="100%" y2="0%"><stop offset="14.513888888888888%" stop-color="#ececec" stop-opacity="1"></stop><stop offset="85.48611111111111%" stop-color="#ececec" stop-opacity="1"></stop></linearGradient></defs><defs><linearGradient id="grad2_0" x1="0%" y1="100%" x2="56.4%" y2="0%"><stop offset="14.513888888888888%" stop-color="#ececec" stop-opacity="1"></stop><stop offset="85.48611111111111%" stop-color="#ececec" stop-opacity="1"></stop></linearGradient></defs><g transform="translate(2555, 1440)"><path d="M-360 0C-349.2 -36.1 -338.3 -72.1 -326.2 -106C-314.1 -139.9 -300.7 -171.6 -283.2 -205.7C-265.6 -239.8 -243.8 -276.4 -211.6 -291.2C-179.4 -306.1 -136.8 -299.3 -99.8 -307.2C-62.8 -315 -31.4 -337.5 0 -360L0 0Z" fill="#f64444"></path></g><g transform="translate(0, 0)"><path d="M360 0C336.9 33 313.7 66 295.8 96.1C277.8 126.2 265 153.4 250 181.6C235 209.9 217.7 239.3 195.1 268.6C172.6 297.9 144.7 327.2 111.2 342.4C77.8 357.6 38.9 358.8 0 360L0 0Z" fill="#f64444"></path></g></svg>