<svg id="visual" viewBox="0 0 1179 2556" width="1179" height="2556" xmlns="http://www.w3.org/2000/svg" xmlns:xlink="http://www.w3.org/1999/xlink" version="1.1"><rect x="0" y="0" width="1179" height="2556" fill="#ececec"></rect><defs><linearGradient id="grad1_0" x1="0%" y1="100%" x2="100%" y2="0%"><stop offset="30%" stop-color="#ececec" stop-opacity="1"></stop><stop offset="70%" stop-color="#ececec" stop-opacity="1"></stop></linearGradient></defs><defs><linearGradient id="grad2_0" x1="0%" y1="100%" x2="100%" y2="0%"><stop offset="30%" stop-color="#ececec" stop-opacity="1"></stop><stop offset="70%" stop-color="#ececec" stop-opacity="1"></stop></linearGradient></defs><g transform="translate(1179, 2556)"><path d="M-471.6 0C-455.3 -46.6 -438.9 -93.3 -422.3 -137.2C-405.6 -181.1 -388.6 -222.4 -366.5 -266.3C-344.3 -310.1 -317 -356.6 -277.2 -381.5C-237.4 -406.5 -185.2 -409.9 -136.9 -421.3C-88.6 -432.7 -44.3 -452.2 0 -471.6L0 0Z" fill="#f64444"></path></g><g transform="translate(0, 0)"><path d="M471.6 0C471 52.3 470.4 104.7 448.5 145.7C426.6 186.8 383.3 216.6 353.5 256.9C323.8 297.1 307.5 347.9 272.7 375.4C238 402.9 184.8 407.2 136.3 419.4C87.7 431.6 43.9 451.6 0 471.6L0 0Z" fill="#f64444"></path></g></svg>