<svg id="visual" viewBox="0 0 2555 1440" width="2555" height="1440" xmlns="http://www.w3.org/2000/svg" xmlns:xlink="http://www.w3.org/1999/xlink" version="1.1"><g><g transform="translate(2459 494)"><path d="M0 -34.2L14.8 -30.8L26.8 -21.3L33.4 -7.6L33.4 7.6L26.8 21.3L14.8 30.8L0 34.2L-14.8 30.8L-26.8 21.3L-33.4 7.6L-33.4 -7.6L-26.8 -21.3L-14.8 -30.8Z" stroke="#ff6d6d" fill="none" stroke-width="4"></path></g><g transform="translate(1986 179)"><path d="M0 -30L13 -27L23.5 -18.7L29.2 -6.7L29.2 6.7L23.5 18.7L13 27L0 30L-13 27L-23.5 18.7L-29.2 6.7L-29.2 -6.7L-23.5 -18.7L-13 -27Z" stroke="#ff6d6d" fill="none" stroke-width="4"></path></g><g transform="translate(1095 1297)"><path d="M0 -30L13 -27L23.5 -18.7L29.2 -6.7L29.2 6.7L23.5 18.7L13 27L0 30L-13 27L-23.5 18.7L-29.2 6.7L-29.2 -6.7L-23.5 -18.7L-13 -27Z" stroke="#ff6d6d" fill="none" stroke-width="4"></path></g><g transform="translate(473 483)"><path d="M0 -32L13.9 -28.8L25 -20L31.2 -7.1L31.2 7.1L25 20L13.9 28.8L0 32L-13.9 28.8L-25 20L-31.2 7.1L-31.2 -7.1L-25 -20L-13.9 -28.8Z" stroke="#ff6d6d" fill="none" stroke-width="4"></path></g><g transform="translate(1147 1344)"><path d="M0 -20L8.7 -18L15.6 -12.5L19.5 -4.5L19.5 4.5L15.6 12.5L8.7 18L0 20L-8.7 18L-15.6 12.5L-19.5 4.5L-19.5 -4.5L-15.6 -12.5L-8.7 -18Z" stroke="#ff6d6d" fill="none" stroke-width="4"></path></g><g transform="translate(992 1245)"><path d="M0 -16L6.9 -14.4L12.5 -10L15.6 -3.6L15.6 3.6L12.5 10L6.9 14.4L0 16L-6.9 14.4L-12.5 10L-15.6 3.6L-15.6 -3.6L-12.5 -10L-6.9 -14.4Z" stroke="#ff6d6d" fill="none" stroke-width="4"></path></g><g transform="translate(1581 989)"><path d="M0 -14L6.1 -12.6L10.9 -8.7L13.6 -3.1L13.6 3.1L10.9 8.7L6.1 12.6L0 14L-6.1 12.6L-10.9 8.7L-13.6 3.1L-13.6 -3.1L-10.9 -8.7L-6.1 -12.6Z" stroke="#ff6d6d" fill="none" stroke-width="4"></path></g><g transform="translate(1632 1310)"><path d="M0 -15L6.5 -13.5L11.7 -9.4L14.6 -3.3L14.6 3.3L11.7 9.4L6.5 13.5L0 15L-6.5 13.5L-11.7 9.4L-14.6 3.3L-14.6 -3.3L-11.7 -9.4L-6.5 -13.5Z" stroke="#ff6d6d" fill="none" stroke-width="4"></path></g></g></svg>