<svg id="visual" viewBox="0 0 1179 2556" width="1179" height="2556" xmlns="http://www.w3.org/2000/svg" xmlns:xlink="http://www.w3.org/1999/xlink" version="1.1"><g><g transform="translate(1110 276)"><path d="M0 -31L13.4 -27.9L24.2 -19.3L30.2 -6.9L30.2 6.9L24.2 19.3L13.4 27.9L0 31L-13.4 27.9L-24.2 19.3L-30.2 6.9L-30.2 -6.9L-24.2 -19.3L-13.4 -27.9Z" stroke="#323e54" fill="none" stroke-width="4"></path></g><g transform="translate(56 1355)"><path d="M0 -21L9.1 -18.9L16.4 -13.1L20.5 -4.7L20.5 4.7L16.4 13.1L9.1 18.9L0 21L-9.1 18.9L-16.4 13.1L-20.5 4.7L-20.5 -4.7L-16.4 -13.1L-9.1 -18.9Z" stroke="#323e54" fill="none" stroke-width="4"></path></g><g transform="translate(1108 1763)"><path d="M0 -29L12.6 -26.1L22.7 -18.1L28.3 -6.5L28.3 6.5L22.7 18.1L12.6 26.1L0 29L-12.6 26.1L-22.7 18.1L-28.3 6.5L-28.3 -6.5L-22.7 -18.1L-12.6 -26.1Z" stroke="#ff6d6d" fill="none" stroke-width="4"></path></g><g transform="translate(988 41)"><path d="M0 -22L9.5 -19.8L17.2 -13.7L21.4 -4.9L21.4 4.9L17.2 13.7L9.5 19.8L0 22L-9.5 19.8L-17.2 13.7L-21.4 4.9L-21.4 -4.9L-17.2 -13.7L-9.5 -19.8Z" stroke="#ff6d6d" fill="none" stroke-width="4"></path></g><g transform="translate(1092 814)"><path d="M0 -17L7.4 -15.3L13.3 -10.6L16.6 -3.8L16.6 3.8L13.3 10.6L7.4 15.3L0 17L-7.4 15.3L-13.3 10.6L-16.6 3.8L-16.6 -3.8L-13.3 -10.6L-7.4 -15.3Z" stroke="#323e54" fill="none" stroke-width="4"></path></g><g transform="translate(269 738)"><path d="M0 -15L6.5 -13.5L11.7 -9.4L14.6 -3.3L14.6 3.3L11.7 9.4L6.5 13.5L0 15L-6.5 13.5L-11.7 9.4L-14.6 3.3L-14.6 -3.3L-11.7 -9.4L-6.5 -13.5Z" stroke="#ff6d6d" fill="none" stroke-width="4"></path></g><g transform="translate(896 566)"><path d="M0 -21L9.1 -18.9L16.4 -13.1L20.5 -4.7L20.5 4.7L16.4 13.1L9.1 18.9L0 21L-9.1 18.9L-16.4 13.1L-20.5 4.7L-20.5 -4.7L-16.4 -13.1L-9.1 -18.9Z" stroke="#612e2e" fill="none" stroke-width="4"></path></g><g transform="translate(1029 1652)"><path d="M0 -27L11.7 -24.3L21.1 -16.8L26.3 -6L26.3 6L21.1 16.8L11.7 24.3L0 27L-11.7 24.3L-21.1 16.8L-26.3 6L-26.3 -6L-21.1 -16.8L-11.7 -24.3Z" stroke="#612e2e" fill="none" stroke-width="4"></path></g></g></svg>
